<mxfile host="app.diagrams.net" agent="Mozilla/5.0 (Macintosh; Intel Mac OS X 10_15_7) AppleWebKit/537.36 (KHTML, like Gecko) Chrome/136.0.0.0 Safari/537.36" version="26.2.14">
  <diagram name="Page-1" id="saaR4F-_Rif6BhVcq52Z">
    <mxGraphModel dx="1478" dy="868" grid="1" gridSize="10" guides="1" tooltips="1" connect="1" arrows="1" fold="1" page="1" pageScale="1" pageWidth="850" pageHeight="1100" math="0" shadow="0">
      <root>
        <mxCell id="0" />
        <mxCell id="1" parent="0" />
        <mxCell id="EfA6ek4f-y63-T1g8-0h-3" value="" style="edgeStyle=orthogonalEdgeStyle;rounded=0;orthogonalLoop=1;jettySize=auto;html=1;" parent="1" source="EfA6ek4f-y63-T1g8-0h-1" target="EfA6ek4f-y63-T1g8-0h-2" edge="1">
          <mxGeometry relative="1" as="geometry" />
        </mxCell>
        <mxCell id="EfA6ek4f-y63-T1g8-0h-1" value="OTC Market Data&lt;div&gt;(Source)&lt;/div&gt;" style="shape=document;whiteSpace=wrap;html=1;boundedLbl=1;" parent="1" vertex="1">
          <mxGeometry x="20" y="240" width="120" height="80" as="geometry" />
        </mxCell>
        <mxCell id="EfA6ek4f-y63-T1g8-0h-5" value="" style="edgeStyle=orthogonalEdgeStyle;rounded=0;orthogonalLoop=1;jettySize=auto;html=1;" parent="1" source="EfA6ek4f-y63-T1g8-0h-2" target="EfA6ek4f-y63-T1g8-0h-4" edge="1">
          <mxGeometry relative="1" as="geometry" />
        </mxCell>
        <mxCell id="EfA6ek4f-y63-T1g8-0h-2" value="Gather" style="rounded=1;whiteSpace=wrap;html=1;" parent="1" vertex="1">
          <mxGeometry x="220" y="250" width="120" height="60" as="geometry" />
        </mxCell>
        <mxCell id="EfA6ek4f-y63-T1g8-0h-7" value="" style="edgeStyle=orthogonalEdgeStyle;rounded=0;orthogonalLoop=1;jettySize=auto;html=1;" parent="1" source="EfA6ek4f-y63-T1g8-0h-4" target="EfA6ek4f-y63-T1g8-0h-6" edge="1">
          <mxGeometry relative="1" as="geometry" />
        </mxCell>
        <mxCell id="EfA6ek4f-y63-T1g8-0h-4" value="Temporary&lt;div&gt;Storage&lt;/div&gt;" style="shape=cylinder3;whiteSpace=wrap;html=1;boundedLbl=1;backgroundOutline=1;size=15;" parent="1" vertex="1">
          <mxGeometry x="250" y="370" width="60" height="80" as="geometry" />
        </mxCell>
        <mxCell id="EfA6ek4f-y63-T1g8-0h-9" value="" style="edgeStyle=orthogonalEdgeStyle;rounded=0;orthogonalLoop=1;jettySize=auto;html=1;" parent="1" source="EfA6ek4f-y63-T1g8-0h-6" target="EfA6ek4f-y63-T1g8-0h-8" edge="1">
          <mxGeometry relative="1" as="geometry" />
        </mxCell>
        <mxCell id="EfA6ek4f-y63-T1g8-0h-6" value="Extract" style="rounded=1;whiteSpace=wrap;html=1;" parent="1" vertex="1">
          <mxGeometry x="360" y="380" width="120" height="60" as="geometry" />
        </mxCell>
        <mxCell id="EfA6ek4f-y63-T1g8-0h-11" value="" style="edgeStyle=orthogonalEdgeStyle;rounded=0;orthogonalLoop=1;jettySize=auto;html=1;" parent="1" source="EfA6ek4f-y63-T1g8-0h-8" target="EfA6ek4f-y63-T1g8-0h-10" edge="1">
          <mxGeometry relative="1" as="geometry" />
        </mxCell>
        <mxCell id="EfA6ek4f-y63-T1g8-0h-8" value="Clean" style="whiteSpace=wrap;html=1;rounded=1;" parent="1" vertex="1">
          <mxGeometry x="400" y="240" width="120" height="60" as="geometry" />
        </mxCell>
        <mxCell id="EfA6ek4f-y63-T1g8-0h-13" value="" style="edgeStyle=orthogonalEdgeStyle;rounded=0;orthogonalLoop=1;jettySize=auto;html=1;" parent="1" source="EfA6ek4f-y63-T1g8-0h-10" target="EfA6ek4f-y63-T1g8-0h-12" edge="1">
          <mxGeometry relative="1" as="geometry" />
        </mxCell>
        <mxCell id="EfA6ek4f-y63-T1g8-0h-10" value="Reformat" style="whiteSpace=wrap;html=1;rounded=1;" parent="1" vertex="1">
          <mxGeometry x="590" y="240" width="120" height="60" as="geometry" />
        </mxCell>
        <mxCell id="EfA6ek4f-y63-T1g8-0h-15" value="" style="edgeStyle=orthogonalEdgeStyle;rounded=0;orthogonalLoop=1;jettySize=auto;html=1;" parent="1" source="EfA6ek4f-y63-T1g8-0h-12" target="EfA6ek4f-y63-T1g8-0h-14" edge="1">
          <mxGeometry relative="1" as="geometry" />
        </mxCell>
        <mxCell id="EfA6ek4f-y63-T1g8-0h-12" value="Transform" style="whiteSpace=wrap;html=1;rounded=1;" parent="1" vertex="1">
          <mxGeometry x="790" y="240" width="120" height="60" as="geometry" />
        </mxCell>
        <mxCell id="EfA6ek4f-y63-T1g8-0h-17" value="" style="edgeStyle=orthogonalEdgeStyle;rounded=0;orthogonalLoop=1;jettySize=auto;html=1;" parent="1" source="EfA6ek4f-y63-T1g8-0h-14" target="EfA6ek4f-y63-T1g8-0h-16" edge="1">
          <mxGeometry relative="1" as="geometry" />
        </mxCell>
        <mxCell id="EfA6ek4f-y63-T1g8-0h-14" value="Consolidate" style="whiteSpace=wrap;html=1;rounded=1;" parent="1" vertex="1">
          <mxGeometry x="1000" y="360" width="120" height="60" as="geometry" />
        </mxCell>
        <mxCell id="EfA6ek4f-y63-T1g8-0h-19" value="" style="edgeStyle=orthogonalEdgeStyle;rounded=0;orthogonalLoop=1;jettySize=auto;html=1;" parent="1" source="EfA6ek4f-y63-T1g8-0h-16" target="EfA6ek4f-y63-T1g8-0h-18" edge="1">
          <mxGeometry relative="1" as="geometry" />
        </mxCell>
        <mxCell id="EfA6ek4f-y63-T1g8-0h-16" value="Load" style="whiteSpace=wrap;html=1;rounded=1;" parent="1" vertex="1">
          <mxGeometry x="1285" y="320" width="120" height="60" as="geometry" />
        </mxCell>
        <mxCell id="EfA6ek4f-y63-T1g8-0h-18" value="Data&amp;nbsp;&lt;div&gt;Warehouse&lt;/div&gt;" style="shape=cylinder3;whiteSpace=wrap;html=1;boundedLbl=1;backgroundOutline=1;size=15;" parent="1" vertex="1">
          <mxGeometry x="1260" y="460" width="145" height="170" as="geometry" />
        </mxCell>
        <mxCell id="-NLIGs5jsREwLxyYZs_w-3" value="" style="edgeStyle=orthogonalEdgeStyle;rounded=0;orthogonalLoop=1;jettySize=auto;html=1;" edge="1" parent="1" source="-NLIGs5jsREwLxyYZs_w-1" target="-NLIGs5jsREwLxyYZs_w-2">
          <mxGeometry relative="1" as="geometry" />
        </mxCell>
        <mxCell id="-NLIGs5jsREwLxyYZs_w-1" value="Reference Data&lt;div&gt;(Source)&lt;/div&gt;" style="shape=document;whiteSpace=wrap;html=1;boundedLbl=1;" vertex="1" parent="1">
          <mxGeometry x="20" y="470" width="120" height="80" as="geometry" />
        </mxCell>
        <mxCell id="-NLIGs5jsREwLxyYZs_w-5" value="" style="edgeStyle=orthogonalEdgeStyle;rounded=0;orthogonalLoop=1;jettySize=auto;html=1;" edge="1" parent="1" source="-NLIGs5jsREwLxyYZs_w-2" target="-NLIGs5jsREwLxyYZs_w-4">
          <mxGeometry relative="1" as="geometry" />
        </mxCell>
        <mxCell id="-NLIGs5jsREwLxyYZs_w-2" value="Gather" style="rounded=1;whiteSpace=wrap;html=1;" vertex="1" parent="1">
          <mxGeometry x="220" y="480" width="120" height="60" as="geometry" />
        </mxCell>
        <mxCell id="-NLIGs5jsREwLxyYZs_w-22" value="" style="edgeStyle=orthogonalEdgeStyle;rounded=0;orthogonalLoop=1;jettySize=auto;html=1;" edge="1" parent="1" source="-NLIGs5jsREwLxyYZs_w-4" target="-NLIGs5jsREwLxyYZs_w-11">
          <mxGeometry relative="1" as="geometry" />
        </mxCell>
        <mxCell id="-NLIGs5jsREwLxyYZs_w-4" value="Temporary&lt;div&gt;Storage&lt;/div&gt;" style="shape=cylinder3;whiteSpace=wrap;html=1;boundedLbl=1;backgroundOutline=1;size=15;" vertex="1" parent="1">
          <mxGeometry x="250" y="600" width="60" height="80" as="geometry" />
        </mxCell>
        <mxCell id="-NLIGs5jsREwLxyYZs_w-21" value="" style="edgeStyle=orthogonalEdgeStyle;rounded=0;orthogonalLoop=1;jettySize=auto;html=1;" edge="1" parent="1" source="-NLIGs5jsREwLxyYZs_w-11" target="-NLIGs5jsREwLxyYZs_w-13">
          <mxGeometry relative="1" as="geometry" />
        </mxCell>
        <mxCell id="-NLIGs5jsREwLxyYZs_w-11" value="Extract" style="rounded=1;whiteSpace=wrap;html=1;" vertex="1" parent="1">
          <mxGeometry x="360" y="610" width="120" height="60" as="geometry" />
        </mxCell>
        <mxCell id="-NLIGs5jsREwLxyYZs_w-23" value="" style="edgeStyle=orthogonalEdgeStyle;rounded=0;orthogonalLoop=1;jettySize=auto;html=1;" edge="1" parent="1" source="-NLIGs5jsREwLxyYZs_w-13" target="-NLIGs5jsREwLxyYZs_w-15">
          <mxGeometry relative="1" as="geometry" />
        </mxCell>
        <mxCell id="-NLIGs5jsREwLxyYZs_w-13" value="Clean" style="whiteSpace=wrap;html=1;rounded=1;" vertex="1" parent="1">
          <mxGeometry x="400" y="470" width="120" height="60" as="geometry" />
        </mxCell>
        <mxCell id="-NLIGs5jsREwLxyYZs_w-24" value="" style="edgeStyle=orthogonalEdgeStyle;rounded=0;orthogonalLoop=1;jettySize=auto;html=1;" edge="1" parent="1" source="-NLIGs5jsREwLxyYZs_w-15" target="-NLIGs5jsREwLxyYZs_w-17">
          <mxGeometry relative="1" as="geometry" />
        </mxCell>
        <mxCell id="-NLIGs5jsREwLxyYZs_w-15" value="Reformat" style="whiteSpace=wrap;html=1;rounded=1;" vertex="1" parent="1">
          <mxGeometry x="590" y="470" width="120" height="60" as="geometry" />
        </mxCell>
        <mxCell id="-NLIGs5jsREwLxyYZs_w-20" value="" style="edgeStyle=orthogonalEdgeStyle;rounded=0;orthogonalLoop=1;jettySize=auto;html=1;entryX=0.5;entryY=1;entryDx=0;entryDy=0;" edge="1" parent="1" source="-NLIGs5jsREwLxyYZs_w-17" target="EfA6ek4f-y63-T1g8-0h-14">
          <mxGeometry relative="1" as="geometry">
            <mxPoint x="1020" y="550" as="targetPoint" />
          </mxGeometry>
        </mxCell>
        <mxCell id="-NLIGs5jsREwLxyYZs_w-17" value="Transform" style="whiteSpace=wrap;html=1;rounded=1;" vertex="1" parent="1">
          <mxGeometry x="790" y="470" width="120" height="60" as="geometry" />
        </mxCell>
      </root>
    </mxGraphModel>
  </diagram>
</mxfile>
